<svg width="800" height="400" viewBox="0 0 800 400" xmlns="http://www.w3.org/2000/svg"><defs><pattern id="satori_pattern_id_0" x="0" y="0" width="1" height="1" patternUnits="objectBoundingBox"><linearGradient id="satori_biid_0" x1="0" y1="0" x2="1" y2="1"><stop offset="0%" stop-color="rgba(30,27,75,0.5)"/><stop offset="50%" stop-color="#030712"/><stop offset="100%" stop-color="#030712"/></linearGradient><rect x="0" y="0" width="800" height="400" fill="url(#satori_biid_0)"/></pattern></defs><mask id="satori_om-id"><rect x="0" y="0" width="800" height="400" fill="#fff"/></mask><rect x="0" y="0" width="800" height="400" fill="url(#satori_pattern_id_0)"/><clipPath id="satori_bct-id-0"><path d="M162.6 203.1L162.6 181.0L170.0 181.0L170.0 203.7Q170.0 207.5 168.2 210.4Q166.3 213.2 163.1 214.8Q159.8 216.4 155.5 216.4L155.5 216.4Q151.2 216.4 147.9 214.8Q144.6 213.2 142.8 210.4Q141.0 207.5 141.0 203.7L141.0 203.7L141.0 181.0L148.4 181.0L148.4 203.1Q148.4 205.1 149.3 206.6Q150.2 208.2 151.8 209.0Q153.4 209.9 155.5 209.9L155.5 209.9Q157.7 209.9 159.2 209.0Q160.8 208.2 161.7 206.6Q162.6 205.1 162.6 203.1L162.6 203.1ZM181.2 200.8L181.2 200.8L181.2 215.9L173.9 215.9L173.9 189.7L180.8 189.7L180.8 194.4L181.1 194.4Q182.0 192.1 184.1 190.7Q186.1 189.4 189.0 189.4L189.0 189.4Q191.7 189.4 193.8 190.6Q195.8 191.8 196.9 194.0Q198.0 196.2 198.0 199.3L198.0 199.3L198.0 215.9L190.8 215.9L190.8 200.6Q190.8 198.1 189.6 196.8Q188.3 195.4 186.1 195.4L186.1 195.4Q184.7 195.4 183.5 196.1Q182.4 196.7 181.8 197.9Q181.2 199.1 181.2 200.8ZM201.8 181.0L209.0 181.0L209.0 215.9L201.8 215.9L201.8 181.0ZM224.7 216.4L224.7 216.4Q220.7 216.4 217.8 214.8Q214.9 213.1 213.3 210.1Q211.8 207.1 211.8 203.0L211.8 203.0Q211.8 198.9 213.3 195.9Q214.9 192.8 217.7 191.1Q220.6 189.4 224.5 189.4L224.5 189.4Q227.0 189.4 229.3 190.2Q231.5 191.1 233.2 192.7Q234.9 194.4 235.8 196.9Q236.8 199.4 236.8 202.7L236.8 202.7L236.8 204.7L214.7 204.7L214.7 200.2L229.9 200.2Q229.9 198.6 229.2 197.4Q228.6 196.2 227.4 195.5Q226.2 194.8 224.6 194.8L224.6 194.8Q222.9 194.8 221.7 195.6Q220.4 196.3 219.7 197.6Q218.9 198.9 218.9 200.4L218.9 200.4L218.9 204.7Q218.9 206.7 219.7 208.1Q220.4 209.5 221.7 210.3Q223.0 211.0 224.9 211.0L224.9 211.0Q226.1 211.0 227.1 210.7Q228.1 210.3 228.8 209.7Q229.5 209.0 229.9 208.0L229.9 208.0L236.6 208.4Q236.1 210.8 234.5 212.6Q232.9 214.4 230.5 215.4Q228.0 216.4 224.7 216.4ZM247.0 216.4L247.0 216.4Q244.5 216.4 242.5 215.5Q240.5 214.7 239.4 212.9Q238.3 211.2 238.3 208.6L238.3 208.6Q238.3 206.4 239.1 205.0Q239.9 203.5 241.3 202.6Q242.6 201.7 244.4 201.2Q246.2 200.7 248.1 200.6L248.1 200.6Q250.4 200.3 251.8 200.1Q253.2 199.9 253.8 199.5Q254.4 199.0 254.4 198.2L254.4 198.2L254.4 198.1Q254.4 196.5 253.4 195.6Q252.4 194.7 250.6 194.7L250.6 194.7Q248.6 194.7 247.4 195.6Q246.3 196.4 245.9 197.7L245.9 197.7L239.2 197.2Q239.7 194.8 241.2 193.0Q242.7 191.3 245.1 190.4Q247.5 189.4 250.6 189.4L250.6 189.4Q252.8 189.4 254.8 189.9Q256.8 190.4 258.3 191.5Q259.9 192.6 260.8 194.3Q261.7 195.9 261.7 198.3L261.7 198.3L261.7 215.9L254.8 215.9L254.8 212.3L254.6 212.3Q254.0 213.5 252.9 214.5Q251.9 215.4 250.4 215.9Q248.9 216.4 247.0 216.4ZM249.0 211.4L249.0 211.4Q250.6 211.4 251.9 210.8Q253.1 210.1 253.8 209.0Q254.5 208.0 254.5 206.6L254.5 206.6L254.5 203.8Q254.2 204.0 253.6 204.2Q253.0 204.4 252.3 204.5Q251.5 204.7 250.8 204.8Q250.1 204.9 249.5 205.0L249.5 205.0Q248.2 205.2 247.2 205.6Q246.3 206.0 245.7 206.7Q245.2 207.4 245.2 208.4L245.2 208.4Q245.2 209.9 246.3 210.6Q247.4 211.4 249.0 211.4ZM287.1 197.2L287.1 197.2L280.5 197.6Q280.3 196.8 279.8 196.1Q279.2 195.4 278.3 195.0Q277.4 194.6 276.1 194.6L276.1 194.6Q274.4 194.6 273.3 195.3Q272.1 196.0 272.1 197.1L272.1 197.1Q272.1 198.1 272.9 198.7Q273.6 199.4 275.4 199.8L275.4 199.8L280.2 200.7Q284.0 201.5 285.9 203.2Q287.7 205.0 287.7 207.8L287.7 207.8Q287.7 210.4 286.2 212.3Q284.7 214.3 282.1 215.4Q279.5 216.4 276.1 216.4L276.1 216.4Q270.9 216.4 267.8 214.3Q264.7 212.1 264.2 208.3L264.2 208.3L271.3 208.0Q271.7 209.6 272.9 210.4Q274.1 211.2 276.1 211.2L276.1 211.2Q278 211.2 279.2 210.5Q280.3 209.7 280.4 208.5L280.4 208.5Q280.3 207.6 279.5 206.9Q278.7 206.3 277.0 205.9L277.0 205.9L272.5 205.0Q268.6 204.3 266.8 202.4Q264.9 200.5 264.9 197.6L264.9 197.6Q264.9 195.0 266.3 193.2Q267.6 191.4 270.1 190.4Q272.6 189.4 276.0 189.4L276.0 189.4Q280.9 189.4 283.8 191.5Q286.7 193.6 287.1 197.2ZM297.6 200.8L297.6 200.8L297.6 215.9L290.3 215.9L290.3 181.0L297.4 181.0L297.4 194.4L297.7 194.4Q298.6 192.0 300.5 190.7Q302.5 189.4 305.5 189.4L305.5 189.4Q308.2 189.4 310.3 190.6Q312.3 191.8 313.4 194.0Q314.6 196.2 314.6 199.3L314.6 199.3L314.6 215.9L307.3 215.9L307.3 200.6Q307.3 198.1 306.1 196.8Q304.8 195.4 302.6 195.4L302.6 195.4Q301.1 195.4 300.0 196.1Q298.9 196.7 298.2 197.9Q297.6 199.1 297.6 200.8Z M338.2 203.6L325.5 181.0L333.8 181.0L341.7 196.1L342.1 196.1L350.0 181.0L358.3 181.0L345.6 203.6L345.6 215.9L338.2 215.9L338.2 203.6ZM366.6 216.4L366.6 216.4Q362.6 216.4 359.7 214.7Q356.8 213.0 355.3 210.0Q353.7 207.0 353.7 202.9L353.7 202.9Q353.7 198.9 355.3 195.8Q356.8 192.8 359.7 191.1Q362.6 189.4 366.6 189.4L366.6 189.4Q370.6 189.4 373.4 191.1Q376.3 192.8 377.9 195.8Q379.5 198.9 379.5 202.9L379.5 202.9Q379.5 207.0 377.9 210.0Q376.3 213.0 373.4 214.7Q370.6 216.4 366.6 216.4ZM366.6 210.8L366.6 210.8Q368.4 210.8 369.6 209.8Q370.8 208.8 371.5 207.0Q372.1 205.2 372.1 202.9L372.1 202.9Q372.1 200.6 371.5 198.8Q370.8 197.0 369.6 196.0Q368.4 194.9 366.6 194.9L366.6 194.9Q364.8 194.9 363.6 196.0Q362.3 197.0 361.7 198.8Q361.1 200.6 361.1 202.9L361.1 202.9Q361.1 205.2 361.7 207.0Q362.3 208.8 363.6 209.8Q364.8 210.8 366.6 210.8ZM399.0 204.8L399.0 204.8L399.0 189.7L406.3 189.7L406.3 215.9L399.3 215.9L399.3 211.2L399.0 211.2Q398.1 213.5 396.1 214.9Q394.0 216.3 391.1 216.3L391.1 216.3Q388.4 216.3 386.4 215.1Q384.5 213.9 383.3 211.7Q382.2 209.5 382.2 206.4L382.2 206.4L382.2 189.7L389.5 189.7L389.5 205.1Q389.5 207.4 390.7 208.8Q391.9 210.1 394.0 210.1L394.0 210.1Q395.3 210.1 396.5 209.5Q397.6 208.9 398.3 207.7Q399.0 206.5 399.0 204.8ZM417.3 215.9L410.1 215.9L410.1 189.7L417.1 189.7L417.1 194.3L417.4 194.3Q418.1 191.9 419.8 190.6Q421.5 189.4 423.7 189.4L423.7 189.4Q424.2 189.4 424.8 189.4Q425.5 189.5 425.9 189.6L425.9 189.6L425.9 196.1Q425.4 195.9 424.5 195.8Q423.6 195.7 422.9 195.7L422.9 195.7Q421.3 195.7 420.0 196.4Q418.8 197.1 418.0 198.3Q417.3 199.5 417.3 201.1L417.3 201.1L417.3 215.9Z "/></clipPath><defs><pattern id="satori_pattern_id-0_0" x="0" y="0" width="1" height="1" patternUnits="objectBoundingBox"><linearGradient id="satori_biid-0_0" x1="0" y1="1" x2="0" y2="0"><stop offset="0%" stop-color="#9ca3af"/><stop offset="50%" stop-color="#f1f5f9"/><stop offset="100%" stop-color="#f8fafc"/></linearGradient><rect x="0" y="0" width="524" height="58" fill="url(#satori_biid-0_0)"/></pattern></defs><mask id="satori_om-id-0"><rect x="138" y="171" width="524" height="58" fill="#fff"/></mask><rect x="138" y="171" width="524" height="58" fill="url(#satori_pattern_id-0_0)" clip-path="url(#satori_bct-id-0)"/><clipPath id="satori_bct-id-0-1"><path d="M471.8 193.2L471.8 193.2L464.4 193.2Q464.2 191.8 463.5 190.7Q462.9 189.5 461.9 188.7Q460.9 187.9 459.6 187.5Q458.4 187.1 456.9 187.1L456.9 187.1Q454.1 187.1 452.1 188.4Q450.1 189.7 449.0 192.3Q447.9 194.8 447.9 198.5L447.9 198.5Q447.9 202.2 449.0 204.7Q450.1 207.3 452.1 208.6Q454.2 209.9 456.8 209.9L456.8 209.9Q458.3 209.9 459.6 209.5Q460.8 209.1 461.8 208.3Q462.8 207.6 463.5 206.5Q464.1 205.4 464.4 204.0L464.4 204.0L471.8 204.0Q471.5 206.4 470.4 208.7Q469.2 210.9 467.3 212.6Q465.4 214.4 462.7 215.4Q460.0 216.4 456.7 216.4L456.7 216.4Q452.0 216.4 448.3 214.3Q444.7 212.2 442.5 208.2Q440.4 204.2 440.4 198.5L440.4 198.5Q440.4 192.8 442.6 188.8Q444.7 184.8 448.4 182.6Q452.1 180.5 456.7 180.5L456.7 180.5Q459.7 180.5 462.3 181.4Q464.9 182.2 466.9 183.9Q468.9 185.5 470.2 187.9Q471.5 190.2 471.8 193.2ZM482.3 215.9L475 215.9L475 189.7L482.0 189.7L482.0 194.3L482.3 194.3Q483.0 191.9 484.7 190.6Q486.4 189.4 488.6 189.4L488.6 189.4Q489.1 189.4 489.8 189.4Q490.4 189.5 490.9 189.6L490.9 189.6L490.9 196.1Q490.4 195.9 489.5 195.8Q488.6 195.7 487.8 195.7L487.8 195.7Q486.2 195.7 485.0 196.4Q483.7 197.1 483.0 198.3Q482.3 199.5 482.3 201.1L482.3 201.1L482.3 215.9ZM503.3 216.4L503.3 216.4Q499.3 216.4 496.4 214.8Q493.5 213.1 491.9 210.1Q490.3 207.1 490.3 203.0L490.3 203.0Q490.3 198.9 491.9 195.9Q493.5 192.8 496.3 191.1Q499.2 189.4 503.0 189.4L503.0 189.4Q505.6 189.4 507.9 190.2Q510.1 191.1 511.8 192.7Q513.5 194.4 514.4 196.9Q515.3 199.4 515.3 202.7L515.3 202.7L515.3 204.7L493.2 204.7L493.2 200.2L508.5 200.2Q508.5 198.6 507.8 197.4Q507.1 196.2 505.9 195.5Q504.7 194.8 503.2 194.8L503.2 194.8Q501.5 194.8 500.2 195.6Q499.0 196.3 498.2 197.6Q497.5 198.9 497.5 200.4L497.5 200.4L497.5 204.7Q497.5 206.7 498.2 208.1Q499.0 209.5 500.3 210.3Q501.6 211.0 503.4 211.0L503.4 211.0Q504.7 211.0 505.7 210.7Q506.7 210.3 507.4 209.7Q508.1 209.0 508.5 208.0L508.5 208.0L515.2 208.4Q514.7 210.8 513.1 212.6Q511.5 214.4 509.0 215.4Q506.6 216.4 503.3 216.4ZM525.5 216.4L525.5 216.4Q523.0 216.4 521.1 215.5Q519.1 214.7 518.0 212.9Q516.9 211.2 516.9 208.6L516.9 208.6Q516.9 206.4 517.7 205.0Q518.5 203.5 519.8 202.6Q521.2 201.7 523.0 201.2Q524.7 200.7 526.7 200.6L526.7 200.6Q529.0 200.3 530.4 200.1Q531.8 199.9 532.4 199.5Q533.0 199.0 533.0 198.2L533.0 198.2L533.0 198.1Q533.0 196.5 532.0 195.6Q531 194.7 529.1 194.7L529.1 194.7Q527.2 194.7 526.0 195.6Q524.9 196.4 524.5 197.7L524.5 197.7L517.8 197.2Q518.3 194.8 519.8 193.0Q521.3 191.3 523.7 190.4Q526.0 189.4 529.2 189.4L529.2 189.4Q531.4 189.4 533.4 189.9Q535.4 190.4 536.9 191.5Q538.5 192.6 539.4 194.3Q540.3 195.9 540.3 198.3L540.3 198.3L540.3 215.9L533.4 215.9L533.4 212.3L533.2 212.3Q532.6 213.5 531.5 214.5Q530.5 215.4 529.0 215.9Q527.5 216.4 525.5 216.4ZM527.6 211.4L527.6 211.4Q529.2 211.4 530.5 210.8Q531.7 210.1 532.4 209.0Q533.1 208.0 533.1 206.6L533.1 206.6L533.1 203.8Q532.7 204.0 532.2 204.2Q531.6 204.4 530.8 204.5Q530.1 204.7 529.4 204.8Q528.6 204.9 528.0 205.0L528.0 205.0Q526.8 205.2 525.8 205.6Q524.8 206.0 524.3 206.7Q523.8 207.4 523.8 208.4L523.8 208.4Q523.8 209.9 524.9 210.6Q526.0 211.4 527.6 211.4ZM542.1 189.7L557.9 189.7L557.9 195.2L542.1 195.2L542.1 189.7ZM545.7 208.8L545.7 183.5L552.9 183.5L552.9 207.9Q552.9 208.9 553.2 209.4Q553.5 210.0 554.1 210.2Q554.7 210.4 555.4 210.4L555.4 210.4Q555.9 210.4 556.4 210.3Q556.9 210.3 557.2 210.2L557.2 210.2L558.3 215.6Q557.8 215.8 556.8 216.0Q555.8 216.2 554.4 216.3L554.4 216.3Q551.8 216.4 549.8 215.6Q547.8 214.8 546.7 213.1Q545.7 211.4 545.7 208.8L545.7 208.8ZM567.8 215.9L560.6 215.9L560.6 189.7L567.8 189.7L567.8 215.9ZM564.2 186.4L564.2 186.4Q562.6 186.4 561.5 185.3Q560.3 184.2 560.3 182.7L560.3 182.7Q560.3 181.2 561.5 180.1Q562.6 179.0 564.2 179.0L564.2 179.0Q565.8 179.0 567.0 180.1Q568.1 181.2 568.1 182.7L568.1 182.7Q568.1 184.2 567.0 185.3Q565.8 186.4 564.2 186.4ZM588.4 189.7L596.0 189.7L586.9 215.9L578.7 215.9L569.6 189.7L577.2 189.7L582.7 208.5L582.9 208.5L588.4 189.7ZM605.0 215.9L597.8 215.9L597.8 189.7L605.0 189.7L605.0 215.9ZM601.4 186.4L601.4 186.4Q599.8 186.4 598.6 185.3Q597.5 184.2 597.5 182.7L597.5 182.7Q597.5 181.2 598.6 180.1Q599.8 179.0 601.4 179.0L601.4 179.0Q603.0 179.0 604.2 180.1Q605.3 181.2 605.3 182.7L605.3 182.7Q605.3 184.2 604.2 185.3Q603.0 186.4 601.4 186.4ZM607.0 189.7L622.7 189.7L622.7 195.2L607.0 195.2L607.0 189.7ZM610.6 208.8L610.6 183.5L617.8 183.5L617.8 207.9Q617.8 208.9 618.1 209.4Q618.4 210.0 619.0 210.2Q619.5 210.4 620.3 210.4L620.3 210.4Q620.8 210.4 621.3 210.3Q621.8 210.3 622.1 210.2L622.1 210.2L623.2 215.6Q622.7 215.8 621.7 216.0Q620.7 216.2 619.3 216.3L619.3 216.3Q616.7 216.4 614.7 215.6Q612.7 214.8 611.6 213.1Q610.5 211.4 610.6 208.8L610.6 208.8ZM629.9 225.7L629.9 225.7Q628.6 225.7 627.4 225.5Q626.2 225.3 625.4 225.0L625.4 225.0L627.0 219.6Q628.3 220.0 629.3 220.0Q630.4 220.0 631.1 219.5Q631.9 219.0 632.4 217.8L632.4 217.8L632.8 216.7L623.4 189.7L631.0 189.7L636.4 209.0L636.7 209.0L642.2 189.7L649.9 189.7L639.7 218.8Q639.0 220.9 637.7 222.4Q636.5 224.0 634.6 224.9Q632.6 225.7 629.9 225.7ZM654.2 216.4L654.2 216.4Q652.5 216.4 651.3 215.2Q650.1 214.0 650.1 212.3L650.1 212.3Q650.1 210.6 651.3 209.4Q652.5 208.2 654.2 208.2L654.2 208.2Q655.8 208.2 657.1 209.4Q658.3 210.6 658.3 212.3L658.3 212.3Q658.3 213.4 657.7 214.3Q657.1 215.3 656.2 215.8Q655.3 216.4 654.2 216.4Z "/></clipPath><defs><pattern id="satori_pattern_id-0-1_0" x="0" y="0" width="1" height="1" patternUnits="objectBoundingBox"><linearGradient id="satori_biid-0-1_0" x1="0" y1="0" x2="1" y2="0"><stop offset="0%" stop-color="#a5b4fc"/><stop offset="50%" stop-color="#6366f1"/><stop offset="100%" stop-color="#3730a3"/></linearGradient><rect x="0" y="0" width="224" height="58" fill="url(#satori_biid-0-1_0)"/></pattern></defs><mask id="satori_om-id-0-1"><rect x="438" y="171" width="224" height="58" fill="#fff"/></mask><rect x="438" y="171" width="224" height="58" fill="url(#satori_pattern_id-0-1_0)" clip-path="url(#satori_bct-id-0-1)"/></svg>